<?xml version="1.0" encoding="UTF-8" standalone="no"?>
<svg viewBox="0 0 64 64" xmlns="http://www.w3.org/2000/svg" xmlns:xlink="http://www.w3.org/1999/xlink">
<defs>
<linearGradient id="linearGradient7449">
<stop offset="0" stop-color="#0d0d0d"/>
<stop offset="1" stop-color="#353535"/>
</linearGradient>
<linearGradient id="linearGradient7433">
<stop offset="0" stop-color="#8c8c8c"/>
<stop offset=".5" stop-color="#444"/>
<stop offset="1" stop-color="#8c8c8c"/>
</linearGradient>
<linearGradient id="linearGradient7261">
<stop offset="0" stop-color="#d3d7cf"/>
<stop offset="1" stop-color="#9f9f9f"/>
</linearGradient>
<linearGradient gradientUnits="userSpaceOnUse" id="linearGradient7251" x1="6.76417" x2="38.92816" y1="35.87879" y2="38.69163">
<stop offset="0" stop-color="#5b5b5b"/>
<stop offset="1" stop-color="#1e1e1e"/>
</linearGradient>
<linearGradient gradientUnits="userSpaceOnUse" id="linearGradient7259" x1="6.76417" x2="52.27099">
<stop offset="0" stop-color="#898989"/>
<stop offset="1" stop-color="#4c4c4c"/>
</linearGradient>
<linearGradient gradientUnits="userSpaceOnUse" id="linearGradient8026" x1="54.31174" x2="32.7495" y1="33.4259" y2="12.37403">
<stop offset="0" stop-color="#8c8c8c"/>
<stop offset=".48546" stop-color="#444"/>
<stop offset="1" stop-color="#8c8c8c"/>
</linearGradient>
<linearGradient gradientUnits="userSpaceOnUse" id="linearGradient7982" x1="9.24659" x2="13.79152" xlink:href="#linearGradient7261"/>
<linearGradient gradientUnits="userSpaceOnUse" id="linearGradient7984" x1="13.14674" x2="16.34824" xlink:href="#linearGradient7261"/>
<linearGradient gradientUnits="userSpaceOnUse" id="linearGradient7986" x1="15.61518" x2="19.11228" xlink:href="#linearGradient7261"/>
<linearGradient gradientUnits="userSpaceOnUse" id="linearGradient7988" x1="18.56666" x2="22.40354" xlink:href="#linearGradient7261"/>
<linearGradient gradientUnits="userSpaceOnUse" id="linearGradient7990" x1="22.01027" x2="25.87004" xlink:href="#linearGradient7261"/>
<linearGradient gradientUnits="userSpaceOnUse" id="linearGradient7992" x1="25.82875" x2="29.90326" xlink:href="#linearGradient7261"/>
<linearGradient gradientUnits="userSpaceOnUse" id="linearGradient7994" x1="30.05253" x2="34.04859" xlink:href="#linearGradient7261"/>
<linearGradient gradientUnits="userSpaceOnUse" id="linearGradient7996" x1="34.11176" x2="37.83354" xlink:href="#linearGradient7261"/>
<linearGradient gradientUnits="userSpaceOnUse" id="linearGradient7998" x1="38.11612" x2="41.69695" xlink:href="#linearGradient7261"/>
<linearGradient gradientUnits="userSpaceOnUse" id="linearGradient8000" x1="41.95593" x2="45.78742" xlink:href="#linearGradient7261"/>
<linearGradient gradientUnits="userSpaceOnUse" id="linearGradient8002" x1="46.01515" x2="49.62722" xlink:href="#linearGradient7261"/>
<linearGradient gradientUnits="userSpaceOnUse" id="linearGradient8004" x1="45.70829" x2="48.27947" xlink:href="#linearGradient7261"/>
<linearGradient gradientUnits="userSpaceOnUse" id="linearGradient8006" x1="42.91676" x2="45.33329" xlink:href="#linearGradient7261"/>
<linearGradient gradientUnits="userSpaceOnUse" id="linearGradient8008" x1="40.38587" x2="42.97231" xlink:href="#linearGradient7261"/>
<linearGradient gradientUnits="userSpaceOnUse" id="linearGradient8010" x1="42.61418" x2="46.5927" xlink:href="#linearGradient7261"/>
<linearGradient gradientUnits="userSpaceOnUse" id="linearGradient8012" x1="46.87911" x2="51.15932" xlink:href="#linearGradient7261"/>
<linearGradient gradientUnits="userSpaceOnUse" id="linearGradient8018" x1="16.50787" x2="24.87608" xlink:href="#linearGradient7433" y1="26.32741" y2="21.9844"/>
<linearGradient gradientUnits="userSpaceOnUse" id="linearGradient8020" x1="12.20123" x2="25.11921" xlink:href="#linearGradient7449" y1="25.01992" y2="22.26716"/>
<linearGradient gradientUnits="userSpaceOnUse" id="linearGradient8022" x1="29.11929" x2="37.78506" xlink:href="#linearGradient7433" y1="35.54229" y2="23.95192"/>
<linearGradient gradientUnits="userSpaceOnUse" id="linearGradient8024" x1="38.69145" x2="32.65312" xlink:href="#linearGradient7449" y1="33.20454" y2="27.04153"/>
<linearGradient gradientUnits="userSpaceOnUse" id="linearGradient8028" x1="52.94537" x2="40.33891" xlink:href="#linearGradient7449" y1="23.90052" y2="24.59902"/>
<linearGradient gradientUnits="userSpaceOnUse" id="linearGradient8030" x1="25.02142" x2="37.78506" xlink:href="#linearGradient7433" y1="29.82523" y2="23.95192"/>
<linearGradient gradientUnits="userSpaceOnUse" id="linearGradient8034" x1="23.51147" x2="15.94195" xlink:href="#linearGradient7433" y1="17.8576" y2="10.24389"/>
<linearGradient gradientUnits="userSpaceOnUse" id="linearGradient8036" x1="17.42892" x2="26.52791" xlink:href="#linearGradient7449" y1="12.22264" y2="17.84642"/>
<linearGradient gradientUnits="userSpaceOnUse" id="linearGradient8038" x1="42.76923" x2="26.00376" xlink:href="#linearGradient7433" y1="20.48195" y2="9.28198"/>
<linearGradient gradientUnits="userSpaceOnUse" id="linearGradient8040" x1="39.75505" x2="37.73081" xlink:href="#linearGradient7449" y1="8.70935" y2="18.27978"/>
<mask id="mask7717" maskUnits="userSpaceOnUse">
<path d="m27.30667,14.23515a5.23636,2.83152 0 1,1 -10.47273,0 5.23636,2.83152 0 1,1 10.47273,0z" fill="#fff" stroke="#2e3436" stroke-linecap="round" stroke-linejoin="round" stroke-width=".1" transform="translate(.08095,-.87907)"/>
</mask>
<mask id="mask7722" maskUnits="userSpaceOnUse">
<path d="m25.13454,23.62182a6.74909,3.14182 0 1,1 -13.49818,0 6.74909,3.14182 0 1,1 13.49818,0z" fill="#fff" stroke="#2e3436" stroke-linecap="round" stroke-linejoin="round" stroke-width=".1" transform="translate(0,-.72567)"/>
</mask>
<mask id="mask7727" maskUnits="userSpaceOnUse">
<path d="m42.27879,30.60364a6.67152,3.68485 0 1,1 -13.34303,0 6.67152,3.68485 0 1,1 13.34303,0z" fill="#fff" stroke="#2e3436" stroke-linecap="round" stroke-linejoin="round" stroke-width=".1" transform="translate(-.38286,-.74272)"/>
</mask>
<mask id="mask7773" maskUnits="userSpaceOnUse">
<path d="m44.76121,15.32121a5.46909,2.83152 0 1,1 -10.93818,0 5.46909,2.83152 0 1,1 10.93818,0z" fill="#fff" stroke="#2e3436" stroke-linecap="round" stroke-linejoin="round" stroke-width=".1" transform="translate(.09456,-.86907)"/>
</mask>
<mask id="mask7827" maskUnits="userSpaceOnUse">
<path d="m53.21697,24.39758a5.74061,3.14182 0 1,1 -11.48121,0 5.74061,3.14182 0 1,1 11.48121,0z" fill="#fff" stroke="#2e3436" stroke-linecap="round" stroke-linejoin="round" stroke-width=".1" transform="translate(.25051,-.85916)"/>
</mask>
<mask id="mask7939" maskUnits="userSpaceOnUse">
<path d="m41.03757,22.0703a7.83515,4.84849 0 1,1 -15.6703,0 7.83515,4.84849 0 1,1 15.6703,0z" fill="#fff" stroke="#2e3436" stroke-linecap="round" stroke-linejoin="round" stroke-width=".09653" transform="matrix(1.04466,-.04066,5.9507738e-4,1.02724,-2.13986,-.37839)"/>
</mask>
<radialGradient cx="33.20242" cy="22.0703" gradientTransform="matrix(2.058,-.17303,-.08786,1.22234,-33.18909,.83809)" gradientUnits="userSpaceOnUse" id="radialGradient8032" r="7.95638">
<stop offset="0" stop-color="#353535"/>
<stop offset="1" stop-color="#0d0d0d"/>
</radialGradient>
</defs>
<g transform="translate(.14475,-992.8987)">
<path d="m52.20849,35.87879c0,6.40516-10.15907,11.59758-22.69091,11.59758s-22.69091-5.19241-22.69091-11.59758 10.15907-11.59758 22.69091-11.59758 22.69091,5.19241 22.69091,11.59758z" fill="url(#linearGradient7251)" stroke="#2e3436" stroke-linecap="round" stroke-linejoin="round" stroke-width=".09504" transform="matrix(.97483,.21459,-.13084,1.10679,5.74282,974.6063)"/>
<path d="m52.20849,35.87879c0,6.40516-10.15907,11.59758-22.69091,11.59758s-22.69091-5.19241-22.69091-11.59758 10.15907-11.59758 22.69091-11.59758 22.69091,5.19241 22.69091,11.59758z" fill="url(#linearGradient7259)" stroke="#2e3436" stroke-linecap="round" stroke-linejoin="round" stroke-width=".09538" transform="matrix(.96801,.21459,-.12992,1.10679,6.14395,973.13228)"/>
<path d="m8.92121,24.74667c0,0-.54303,3.10303 1.47394,6.28364s4.26667,7.29212 13.57576,9.9297 11.24918,2.27372 13.42061,2.1883c2.0514-.0807 6.80152.34661 8.61091.83716 1.36292.36951 2.40485.46545 2.56,1.55152s-2.17212,1.08606-4.03394,2.2497-2.71515,3.10303-3.49091,5.35273-1.24121,3.18061-.46546,4.34424 3.25818,3.64606 5.58545,4.57697 4.88727,1.08606 4.88727,1.08606l.93091-4.11151c0,0-3.02546-.15515-5.97333-2.09455s-2.94788-3.10303-2.94788-3.64606 1.31879-1.24121 2.79273-1.86182 2.71515-.15515 3.18061-2.09455 1.31879-5.04242 1.16364-6.51636-1.08606-2.2497-2.8703-3.02545-3.56848-1.16364-5.58545-1.16364-9.15394.54303-14.81697-1.31879-13.34303-6.90424-14.97212-8.76606-2.45333-2.80242-3.02545-3.80121z" fill="#0d0d0d" stroke="#2e3436" stroke-width=".1" transform="translate(0,988.36218)"/>
<path d="m9.30909,25.79231c0,0 .11284,2.71515 1.23134,4.60846 .79896,1.35242 2.15942,3.27792 2.15942,3.27792l1.02917-2.95586c0,0-.74332-.44383-2.23794-1.78519-1.32915-1.19285-1.75532-2.57322-2.18199-3.14534z" fill="url(#linearGradient7982)" stroke="#2e3436" stroke-width=".1" transform="translate(0,988.36218)"/>
<path d="m14.32165,31.1025-1.11241,3.13291 1.95188,1.71114 1.12462-3.06429-1.9641-1.77977z" fill="url(#linearGradient7984)" stroke="#2e3436" stroke-width=".1" transform="translate(0,988.36218)"/>
<path d="m16.7992,33.3211 2.25058,1.33938-1.22212,3.10848-2.14998-1.38357 1.12152-3.06429z" fill="url(#linearGradient7986)" stroke="#2e3436" stroke-width=".1" transform="translate(0,988.36218)"/>
<path d="m19.76444,35.06733 2.7016.92628-1.09572,3.37679-2.74117-1.26165 1.13528-3.04142z" fill="url(#linearGradient7988)" stroke="#2e3436" stroke-width=".1" transform="translate(0,988.36218)"/>
<path d="m23.19745,36.15432 2.98509,1.17167-1.04094,3.31069-3.06883-.99123 1.12468-3.49113z" fill="url(#linearGradient7990)" stroke="#2e3436" stroke-width=".1" transform="translate(0,988.36218)"/>
<path d="m26.78929,37.52828 3.36398.91127-.74335,3.2969-3.51866-.89329 .89804-3.31488z" fill="url(#linearGradient7992)" stroke="#2e3436" stroke-width=".1" transform="translate(0,988.36218)"/>
<path d="m30.74137,1026.9586c0,0 .83773.2345 1.80986.399 .97696.1653 1.55986.2114 1.55986.2114l-.54788,3.266c0,0-1.23983-.1292-1.81784-.2196-.6997-.1096-1.63034-.3289-1.63034-.3289l.62633-3.3279z" fill="url(#linearGradient7994)" stroke="#2e3436" stroke-width=".1"/>
<path d="m34.66795,1027.6242 3.10309.04-.38398,3.2892c0,0-1.07093.078-1.6064.07s-1.6064-.1174-1.6064-.1174l.49369-3.1566v-.0004-.1248z" fill="url(#linearGradient7996)" stroke="#2e3436" stroke-width=".1"/>
<path d="m38.50775,39.30924 1.61022-.0118c.52633-.0039 1.51648.08195 1.51648.08195l-.33677,3.37603c0,0-1.03968-.06527-1.55953-.06666s-1.55953-.03541-1.55953-.03541l.32913-3.34411z" fill="url(#linearGradient7998)" stroke="#2e3436" stroke-width=".1" transform="translate(0,988.36218)"/>
<path d="m42.38712,39.35578c0,0 1.16468.18539 1.70015.24685s1.63765.46559 1.63765.46559l-.41523,3.30722c0,0-1.09709-.19326-1.64563-.27427s-1.64563-.21177-1.64563-.21177l.36869-3.53362z" fill="url(#linearGradient8000)" stroke="#2e3436" stroke-width=".1" transform="translate(0,988.36218)"/>
<path d="m46.54009,40.31888c0,0 1.31019.24436 2.15528.87834 .46644.34992.86936.98671.86936.98671l-.72906,3.05588c0,0-.19742-.62169-.84776-.98738-.94715-.53258-1.91025-.64229-1.91025-.64229l.46244-3.29126z" fill="url(#linearGradient8002)" stroke="#2e3436" stroke-width=".1" transform="translate(0,988.36218)"/>
<path d="m48.21697,46.9403-.63532,3.33082-1.81086.65061 .29157-2.98641 2.15461-.99502z" fill="url(#linearGradient8004)" stroke="#2e3436" stroke-width=".1" transform="translate(0,988.36218)"/>
<path d="m45.27079,48.25747-.34508,3.00103c0,0-.54854.28956-1.04223.56383s-.87767.65825-.87767.65825-.21942-2.13932.6034-2.96214 1.44217-1.26098 1.66159-1.26098z" fill="url(#linearGradient8006)" stroke="#2e3436" stroke-width=".1" transform="translate(0,988.36218)"/>
<path d="m41.61882,52.25319c0,0 .18019.83079.45446,1.59875s.83653,1.76905.83653,1.76905-.35655.63082-.64454,1.48107c-.2663.78622-.24685,1.50849-.24685,1.50849l-1.42621-2.07075c-.26224-.38075-.15543-1.02377.23504-2.13899 .43883-1.25334.68186-1.98307.79156-2.14763z" fill="url(#linearGradient8008)" stroke="#2e3436" stroke-width=".1" transform="translate(0,988.36218)"/>
<path d="m43.49949,56.14211c0,0 .67197.61711 1.43993,1.13823 .67019.45477 1.59078.95995 1.59078.95995s-.23313.71311-.34284,1.64563-4e-006,1.53592-4e-006,1.53592-1.00109-.39769-2.0159-1.05595c-.98489-.63884-1.49478-1.17937-1.49478-1.17937s.05485-.72682.27427-1.54964 .31043-.99478.54854-1.49478z" fill="url(#linearGradient8010)" stroke="#2e3436" stroke-width=".1" transform="translate(0,988.36218)"/>
<path d="m47.28444,58.50085c0,0 .98738.5074 2.02961.78167s1.78277.37027 1.78277.37027l-.61711,2.87985c0,0-.8091-.02742-1.85133-.3017s-1.67306-.58969-1.67306-.58969-.05486-.71311.05485-1.53592 .21942-1.60449.27427-1.60449z" fill="url(#linearGradient8012)" stroke="#2e3436" stroke-width=".1" transform="translate(0,988.36218)"/>
<path d="m56.24242,23.69939c0,7.64764-10.69741,13.84727-23.89333,13.84727s-23.89333-6.19963-23.89333-13.84727 10.69741-13.84727 23.89333-13.84727 23.89333,6.19964 23.89333,13.84727z" fill="url(#linearGradient7251)" stroke="#2e3436" stroke-linecap="round" stroke-linejoin="round" stroke-width=".10212" transform="matrix(.99607,.21408,-.23368,.91252,5.35496,985.0704)"/>
<path d="m56.24242,23.69939c0,7.64764-10.69741,13.84727-23.89333,13.84727s-23.89333-6.19963-23.89333-13.84727 10.69741-13.84727 23.89333-13.84727 23.89333,6.19964 23.89333,13.84727z" fill="url(#linearGradient7259)" stroke="#2e3436" stroke-linecap="round" stroke-linejoin="round" stroke-width=".1003" transform="matrix(.99607,.22193,-.23368,.94595,5.35496,982.82611)"/>
<path d="m25.13454,23.62182c0,1.73518-3.02167,3.14182-6.74909,3.14182s-6.74909-1.40664-6.74909-3.14182 3.02167-3.14182 6.74909-3.14182 6.74909,1.40664 6.74909,3.14182z" fill="url(#linearGradient8018)" stroke="#2e3436" stroke-linecap="round" stroke-linejoin="round" stroke-width=".08705" transform="matrix(1.02868,0,0,1.28289,-.56611,982.26154)"/>
<path d="m25.13454,23.62182c0,1.73518-3.02167,3.14182-6.74909,3.14182s-6.74909-1.40664-6.74909-3.14182 3.02167-3.14182 6.74909-3.14182 6.74909,1.40664 6.74909,3.14182z" fill="url(#linearGradient8020)" mask="url(#mask7722)" stroke="#2e3436" stroke-linecap="round" stroke-linejoin="round" stroke-width=".08705" transform="matrix(1.02868,0,0,1.28289,-.56611,983.1925)"/>
<path d="m42.27879,30.60364c0,2.03509-2.98694,3.68485-6.67152,3.68485s-6.67152-1.64976-6.67152-3.68485 2.98694-3.68485 6.67152-3.68485 6.67152,1.64976 6.67152,3.68485z" fill="url(#linearGradient8022)" stroke="#2e3436" stroke-linecap="round" stroke-linejoin="round" stroke-width=".09259" transform="matrix(.96574,.42197,-.39338,1.03593,13.45281,973.3625)"/>
<path d="m42.27879,30.60364c0,2.03509-2.98694,3.68485-6.67152,3.68485s-6.67152-1.64976-6.67152-3.68485 2.98694-3.68485 6.67152-3.68485 6.67152,1.64976 6.67152,3.68485z" fill="url(#linearGradient8024)" mask="url(#mask7727)" stroke="#2e3436" stroke-linecap="round" stroke-linejoin="round" stroke-width=".09259" transform="matrix(.96574,.42197,-.39338,1.03593,13.53038,974.29346)"/>
<path d="m53.21697,24.39758c0,1.73518-2.57016,3.14182-5.74061,3.14182s-5.74061-1.40664-5.74061-3.14182 2.57016-3.14182 5.74061-3.14182 5.74061,1.40664 5.74061,3.14182z" fill="url(#linearGradient8026)" stroke="#2e3436" stroke-linecap="round" stroke-linejoin="round" stroke-width=".09916" transform="matrix(1.0238,.29254,-.33353,.89797,6.96858,978.16501)"/>
<path d="m53.21697,24.39758c0,1.73518-2.57016,3.14182-5.74061,3.14182s-5.74061-1.40664-5.74061-3.14182 2.57016-3.14182 5.74061-3.14182 5.74061,1.40664 5.74061,3.14182z" fill="url(#linearGradient8028)" mask="url(#mask7827)" stroke="#2e3436" stroke-linecap="round" stroke-linejoin="round" stroke-width=".09916" transform="matrix(1.0238,.29254,-.33353,.89797,6.42555,978.86323)"/>
<path d="m41.03757,22.0703c0,2.67774-3.50792,4.84849-7.83515,4.84849s-7.83515-2.17074-7.83515-4.84849 3.50792-4.84849 7.83515-4.84849 7.83515,2.17074 7.83515,4.84849z" fill="url(#linearGradient8030)" stroke="#2e3436" stroke-linecap="round" stroke-linejoin="round" stroke-width=".23405" transform="matrix(.44315,.11256,-.1318,.37847,21.08713,998.30346)"/>
<path d="m41.03757,22.0703c0,2.67774-3.50792,4.84849-7.83515,4.84849s-7.83515-2.17074-7.83515-4.84849 3.50792-4.84849 7.83515-4.84849 7.83515,2.17074 7.83515,4.84849z" fill="url(#radialGradient8032)" mask="url(#mask7939)" stroke="#2e3436" stroke-linecap="round" stroke-linejoin="round" stroke-width=".24246" transform="matrix(.4192,.12208,-.12854,.36836,21.93552,998.70409)"/>
<path d="m27.30667,14.23515c0,1.5638-2.3444,2.83152-5.23636,2.83152s-5.23636-1.26771-5.23636-2.83152 2.3444-2.83152 5.23636-2.83152 5.23636,1.26771 5.23636,2.83152z" fill="url(#linearGradient8034)" stroke="#2e3436" stroke-linecap="round" stroke-linejoin="round" stroke-width=".09854" transform="matrix(1.01552,.16626,-.17122,.98608,2.32768,985.20119)"/>
<path d="m27.30667,14.23515c0,1.5638-2.3444,2.83152-5.23636,2.83152s-5.23636-1.26771-5.23636-2.83152 2.3444-2.83152 5.23636-2.83152 5.23636,1.26771 5.23636,2.83152z" fill="url(#linearGradient8036)" mask="url(#mask7717)" stroke="#2e3436" stroke-linecap="round" stroke-linejoin="round" stroke-width=".09854" transform="matrix(1.01552,.16626,-.17122,.98608,2.09495,986.05457)"/>
<path d="m44.76121,15.32121c0,1.5638-2.4486,2.83152-5.46909,2.83152s-5.46909-1.26771-5.46909-2.83152 2.4486-2.83152 5.46909-2.83152 5.46909,1.26771 5.46909,2.83152z" fill="url(#linearGradient8038)" stroke="#2e3436" stroke-linecap="round" stroke-linejoin="round" stroke-width=".09609" transform="matrix(1.01375,.24551,-.24675,1.00866,2.61958,979.24238)"/>
<path d="m44.76121,15.32121c0,1.5638-2.4486,2.83152-5.46909,2.83152s-5.46909-1.26771-5.46909-2.83152 2.4486-2.83152 5.46909-2.83152 5.46909,1.26771 5.46909,2.83152z" fill="url(#linearGradient8040)" mask="url(#mask7773)" stroke="#2e3436" stroke-linecap="round" stroke-linejoin="round" stroke-width=".09609" transform="matrix(1.01375,.24551,-.24675,1.00866,2.30928,980.09576)"/>
</g>
</svg>
