<?xml version="1.0" encoding="UTF-8" standalone="no"?>
<svg viewBox="0 0 256 256" xmlns="http://www.w3.org/2000/svg" xmlns:xlink="http://www.w3.org/1999/xlink">
<defs>
<clipPath id="clipPath4187">
<path d="m48,102c-19.8822,0-36,16.1178-36,36s16.1178,36 36,36 36-16.1178 36-36-16.1178-36-36-36zm0,24c6.6274,0 12,5.3726 12,12s-5.3726,12-12,12-12-5.3726-12-12 5.3726-12 12-12z"/>
</clipPath>
<clipPath id="clipPath4031">
<path d="m48,32c-19.8823,0-36,16.1177-36,36s16.1177,36 36,36 36-16.1177 36-36-16.1177-36-36-36zm0,24c6.6274,0 12,5.3726 12,12s-5.3726,12-12,12-12-5.3726-12-12 5.3726-12 12-12z"/>
</clipPath>
<clipPath id="clipPath3721">
<path d="m76.014,47.5127a28.2843,28.2843 0 1,1 -56.5685,0 28.2843,28.2843 0 1,1 56.5685,0z" transform="matrix(1.3435,0,0,1.3435,-16.125,74.16658)"/>
</clipPath>
<clipPath id="clipPath2862">
<path d="m0,0v96h96v-96h-96zm12,6h72c3.324,0 6,2.676 6,6v72c0,3.324-2.676,6-6,6h-72c-3.324,0-6-2.676-6-6v-72c0-3.324 2.676-6 6-6z"/>
</clipPath>
<clipPath id="clipPath3613">
<path d="m12,6h72a6,6 0 0,1 6,6v72a6,6 0 0,1 -6,6h-72a6,6 0 0,1 -6-6v-72a6,6 0 0,1 6-6"/>
</clipPath>
<filter id="filter3751">
<feGaussianBlur stdDeviation="1.44"/>
</filter>
<filter id="filter3832">
<feGaussianBlur stdDeviation=".769"/>
</filter>
<filter id="filter3174">
<feGaussianBlur stdDeviation="1.71"/>
</filter>
<filter height="1.36" id="filter4195" width="1.36" x="-.18" y="-.18">
<feGaussianBlur stdDeviation="5.216"/>
</filter>
<filter height="1.3414" id="filter4035" width="1.3807" x="-.1904" y="-.1707">
<feGaussianBlur stdDeviation="4.948"/>
</filter>
<filter height="1.0762" id="filter4719" width="1.2286" x="-.1143" y="-.0381">
<feGaussianBlur stdDeviation="2.381"/>
</filter>
<filter height="1.384" id="filter3794" width="1.384" x="-.192" y="-.192">
<feGaussianBlur stdDeviation="5.28"/>
</filter>
<linearGradient gradientUnits="userSpaceOnUse" id="linearGradient4150" x1="86.6313" x2="219.1043">
<stop offset="0" stop-color="#c100c2" stop-opacity=".974"/>
<stop offset=".5" stop-color="#9f00dc"/>
<stop offset="1" stop-color="#500241"/>
</linearGradient>
<linearGradient id="linearGradient4542">
<stop offset="0" stop-color="#eee"/>
<stop offset="1" stop-color="#eee" stop-opacity="0"/>
</linearGradient>
<linearGradient gradientUnits="userSpaceOnUse" id="linearGradient4014" x1="26.1802" x2="93.6078">
<stop offset="0" stop-color="#fff" stop-opacity=".203"/>
<stop offset="1" stop-color="#fff" stop-opacity=".68"/>
</linearGradient>
<linearGradient gradientUnits="userSpaceOnUse" id="linearGradient4004" x1="25.2204" x2="94.5676">
<stop offset="0" stop-color="#4d4d4d"/>
<stop offset="1" stop-color="#fff"/>
</linearGradient>
<linearGradient gradientUnits="userSpaceOnUse" id="linearGradient4743" x1="80.6596" x2="13.1128" y1="132.4211" y2="210.6682">
<stop offset="0" stop-color="#fa05ff"/>
<stop offset=".294" stop-color="#facffa"/>
<stop offset="1" stop-color="#0c62ff"/>
</linearGradient>
<linearGradient gradientUnits="userSpaceOnUse" id="linearGradient4745" x1="-12.5865" x2="72.7221" y1="243.1821" y2="118.7894">
<stop offset="0" stop-color="#fa05ff"/>
<stop offset=".85" stop-color="#fdfdfd" stop-opacity=".941"/>
<stop offset="1" stop-color="#0c62ff"/>
</linearGradient>
<linearGradient gradientUnits="userSpaceOnUse" id="linearGradient3613" x2="0" y1="20.2208" y2="138.6612">
<stop offset="0" stop-color="#fff"/>
<stop offset="1" stop-color="#fff" stop-opacity="0"/>
</linearGradient>
<linearGradient gradientUnits="userSpaceOnUse" id="ButtonShadow" x2="0" y1="92" y2="6.9756">
<stop offset="0"/>
<stop offset="1" stop-opacity=".588"/>
</linearGradient>
<radialGradient cx="46.467" cy="47.7652" gradientTransform="matrix(1.31883,-.21079,.20284,1.26911,-24.5039,-3.05961)" gradientUnits="userSpaceOnUse" id="radialGradient3247" r="35.8604">
<stop offset="0" stop-color="#5a5a5a"/>
<stop offset=".465" stop-color="#fff"/>
<stop offset="1" stop-color="#505050"/>
</radialGradient>
<radialGradient cx="40.8465" cy="75.264" gradientTransform="matrix(.9848,.02598,-.01824,.69136,1.99371,24.82026)" gradientUnits="userSpaceOnUse" id="radialGradient4747" r="14.6725">
<stop offset="0" stop-color="#fff"/>
<stop offset="1" stop-opacity="0"/>
</radialGradient>
<radialGradient cx="102.5819" cy="205.007" gradientTransform="matrix(-.26821,1.01696,-2.20846,-.62096,580.84321,232.9747)" gradientUnits="userSpaceOnUse" id="radialGradient4540" r="23.664" xlink:href="#linearGradient4542"/>
<radialGradient cx="154.5591" cy="206.0468" gradientTransform="matrix(.40925,-.95194,2.46865,1.15523,-417.05877,115.65674)" gradientUnits="userSpaceOnUse" id="radialGradient4548" r="21.2322" xlink:href="#linearGradient4542"/>
<radialGradient cx="102.5819" cy="205.007" gradientTransform="matrix(-.26821,1.01696,-2.20846,-.62096,571.18181,233.14403)" gradientUnits="userSpaceOnUse" id="radialGradient4540-0" r="23.664" xlink:href="#linearGradient4542"/>
<radialGradient cx="154.5591" cy="206.0468" gradientTransform="matrix(.41732,-.9707,2.5173,1.178,-440.17953,118.10587)" gradientUnits="userSpaceOnUse" id="radialGradient4548-4" r="21.2322" xlink:href="#linearGradient4542"/>
</defs>
<g fill="url(#linearGradient4150)" transform="translate(29.2117,-764.2753)">
<g fill="url(#linearGradient4150)" font-family="Sans" font-size="10" letter-spacing="0" transform="matrix(2,0,0,2,154.28782,820.91618)" word-spacing="0">
<g fill="url(#linearGradient4150)" transform="matrix(.5,0,0,.5,-93.61905,-28.84555)">
<g fill="url(#linearGradient4150)" transform="translate(0,-796.3622)">
<path d="m82.3274,47.7652c0,19.8052-16.0553,35.8604-35.8604,35.8604s-35.8604-16.0553-35.8604-35.8604 16.0553-35.8604 35.8604-35.8604 35.8604,16.0553 35.8604,35.8604z" fill="url(#radialGradient3247)" opacity=".4" transform="matrix(3.2157,0,0,3.2157,-18.5721,771.44819)"/>
<path clip-path="url(#clipPath3721)" d="m48,102c-19.8823,0-36,16.1178-36,36s16.1177,36 36,36 36-16.1178 36-36-16.1177-36-36-36zm0,24c6.6274,0 12,5.3726 12,12s-5.3726,12-12,12-12-5.3726-12-12 5.3726-12 12-12z" fill="#000" filter="url(#filter3751)" opacity=".8" transform="matrix(3.03464,0,0,3.03464,-14.81086,506.26645)"/>
<path d="m130.852,815.7998c-60.3356,0-109.2472,48.9115-109.2472,109.247s48.9116,109.2474 109.2472,109.2474 109.2471-48.9119 109.2471-109.2474-48.9116-109.247-109.2471-109.247zm0,72.8313c20.1118,0 36.4157,16.3039 36.4157,36.4157s-16.3039,36.4157-36.4157,36.4157-36.4157-16.3039-36.4157-36.4157 16.3039-36.4157 36.4157-36.4157z" fill="#ccbb98"/>
<path d="m130.852,888.6311c-20.1119,0-36.4157,16.3039-36.4157,36.4157s16.3039,36.4157 36.4157,36.4157 36.4157-16.3039 36.4157-36.4157-16.3039-36.4157-36.4157-36.4157zm0,21.2425c8.3799,0 15.1732,6.7933 15.1732,15.1732s-6.7933,15.1732-15.1732,15.1732-15.1732-6.7933-15.1732-15.1732 6.7933-15.1732 15.1732-15.1732z" fill="#fff" opacity=".3"/>
<path d="m92.5795,61.9223c0,15.0268-14.6338,27.2085-32.6855,27.2085s-32.6855-12.1817-32.6855-27.2085 14.6338-27.2085 32.6855-27.2085 32.6855,12.1817 32.6855,27.2085z" fill="none" opacity=".6" stroke="url(#linearGradient4004)" stroke-linecap="round" stroke-width="5.4221" transform="matrix(0,.51064,-.61343,0,168.83707,894.46251)"/>
<path d="m92.5795,61.9223c0,15.0268-14.6338,27.2085-32.6855,27.2085s-32.6855-12.1817-32.6855-27.2085 14.6338-27.2085 32.6855-27.2085 32.6855,12.1817 32.6855,27.2085z" fill="#f9e5e5" fill-rule="evenodd" opacity=".5" stroke="url(#linearGradient4014)" stroke-linecap="round" stroke-width="3.1391" transform="matrix(0,.882,-1.05956,0,196.46258,872.22031)"/>
<path clip-path="url(#clipPath4031)" d="m57.3125,33.2188-9.3125,34.7813 31.1875-18c-4.7739-8.2686-12.6525-14.3101-21.875-16.7813zm-9.3125,34.7813-31.1875,18c4.7739,8.2686 12.6525,14.3101 21.875,16.7813l9.3125-34.7813z" fill="#fff" filter="url(#filter4035)" opacity=".8" transform="matrix(3.03464,0,0,3.03464,-14.81086,712.69133)"/>
<g clip-path="url(#clipPath4187)" fill="url(#linearGradient4150)" filter="url(#filter4195)" opacity=".6" transform="matrix(3.03464,0,0,3.03464,-14.81086,506.26645)">
<path d="m60.9475,57.7841c-.763,1.0454-1.6392,2.0189-2.6155,2.9059l-14.6429-13.3036z" fill="#7137c8" transform="matrix(1.50554,.86922,-.95673,1.6571,27.5603,21.50017)"/>
<path d="m60.7794,58.0108c-.9656,1.2821-2.1023,2.4506-3.384,3.4788l-13.7062-14.1033z" fill="#0cf" transform="matrix(1.67921,.44994,-.49524,1.84826,-1.89561,30.75998)"/>
<path d="m62.7238,54.7957c-.6034,1.2796-1.3613,2.4944-2.2597,3.6221l-16.775-11.0314z" fill="#fc0" transform="matrix(1.73845,0,-6.0266211e-8,1.91346,-27.95122,47.32803)"/>
<path d="m61.6229,56.7935c-.5047.7942-1.0726,1.5538-1.6993,2.2728l-16.2345-11.6798z" fill="#f00" transform="matrix(1.67921,-.44994,.49524,1.84826,-48.83088,70.07522)"/>
<path d="m63.1233,53.8834c-.596,1.4716-1.3922,2.8698-2.37,4.1619l-17.0642-10.659z" fill="#0f0" transform="matrix(1.67921,.44994,-.49524,1.84826,-1.89561,30.75998)"/>
<path d="m60.9475,57.7841c-.763,1.0454-1.6392,2.0189-2.6155,2.9059l-14.6429-13.3036z" fill="#7137c8" transform="matrix(-1.50554,-.86922,.95673,-1.6571,68.43968,254.49984)"/>
<path d="m60.7794,58.0108c-.9656,1.2821-2.1023,2.4506-3.384,3.4788l-13.7062-14.1033z" fill="#0cf" transform="matrix(-1.67921,-.44994,.49524,-1.84826,97.8956,245.24003)"/>
<path d="m62.7238,54.7957c-.6034,1.2796-1.3613,2.4944-2.2597,3.6221l-16.775-11.0314z" fill="#fc0" transform="matrix(-1.73845,0,6.0266211e-8,-1.91346,123.9512,228.67198)"/>
<path d="m61.6229,56.7935c-.5047.7942-1.0726,1.5538-1.6993,2.2728l-16.2345-11.6798z" fill="#f00" transform="matrix(-1.67921,.44994,-.49524,-1.84826,144.83086,205.92479)"/>
<path d="m63.1233,53.8834c-.596,1.4716-1.3922,2.8698-2.37,4.1619l-17.0642-10.659z" fill="#0f0" transform="matrix(-1.67921,-.44994,.49524,-1.84826,97.8956,245.24003)"/>
</g>
<path d="m130.852,881.0445c-24.3018,0-44.0024,19.7005-44.0024,44.0023s19.7005,44.0023 44.0024,44.0023 44.0023-19.7005 44.0023-44.0023-19.7005-44.0023-44.0023-44.0023zm0,7.5866c20.1118,0 36.4157,16.3039 36.4157,36.4157s-16.3039,36.4157-36.4157,36.4157-36.4157-16.3039-36.4157-36.4157 16.3039-36.4157 36.4157-36.4157z" fill="#000" opacity=".2"/>
<path d="m130.852,815.7998c-60.3356,0-109.2472,48.9115-109.2472,109.247 0,1.0229.0668,2.0185.0947,3.0346 1.6199-58.9213 49.8398-106.2124 109.1525-106.2124s107.5326,47.2911 109.1523,106.2124c.0273-1.0161.095-2.0118.095-3.0346 0-60.3355-48.9116-109.247-109.2471-109.247z" fill="#fff" opacity=".4"/>
</g>
</g>
<g fill="url(#linearGradient4150)" transform="matrix(.21684,0,0,.21684,-16.57774,-28.96589)">
<path d="m112.6563,20.3834v157.4994c-9.7018-3.8264-22.3787-4.4356-35.462-.8711-24.4513,6.6617-40.8707,25.3071-36.5628,41.6541s27.6016,24.242 52.0528,17.5803c20.7737-5.6597 30.7817-20.0028 32.1595-34.2103h.1573v-144.6524c13.5011,9.6983 48.1796,50.2543 21.7739,95.765 13.3476-23.5741 15.1322-52.9268 11.573-67.3485s-15.5831-29.2485-28.0123-42.6374c-13.0569-14.0652-17.6795-22.7791-17.6795-22.7791z" fill="none" opacity=".05" stroke="#000" stroke-linejoin="round" stroke-width="18.8024"/>
<path d="m112.6563,20.3834v157.4994c-9.7018-3.8264-22.3787-4.4356-35.462-.8711-24.4513,6.6617-40.8707,25.3071-36.5628,41.6541s27.6016,24.242 52.0528,17.5803c20.7737-5.6597 30.7817-20.0028 32.1595-34.2103h.1573v-144.6524c13.5011,9.6983 48.1796,50.2543 21.7739,95.765 13.3476-23.5741 15.1322-52.9268 11.573-67.3485s-15.5831-29.2485-28.0123-42.6374c-13.0569-14.0652-17.6795-22.7791-17.6795-22.7791z" fill="none" opacity=".1" stroke="#000" stroke-linejoin="round" stroke-width="12.5349"/>
<path d="m112.6563,20.3834v157.4994c-9.7018-3.8264-22.3787-4.4356-35.462-.8711-24.4513,6.6617-40.8707,25.3071-36.5628,41.6541s27.6016,24.242 52.0528,17.5803c20.7737-5.6597 30.7817-20.0028 32.1595-34.2103h.1573v-144.6524c13.5011,9.6983 48.1796,50.2543 21.7739,95.765 13.3476-23.5741 15.1322-52.9268 11.573-67.3485s-15.5831-29.2485-28.0123-42.6374c-13.0569-14.0652-17.6795-22.7791-17.6795-22.7791z" fill="none" opacity=".15" stroke="#000" stroke-linejoin="round" stroke-width="6.2675"/>
<path d="m112.6563,20.3834v157.4994c-9.7018-3.8264-22.3787-4.4356-35.462-.8711-24.4513,6.6617-40.8707,25.3071-36.5628,41.6541s27.6016,24.242 52.0528,17.5803c20.7737-5.6597 30.7817-20.0028 32.1595-34.2103h.1573v-144.6524c13.5011,9.6983 48.1796,50.2543 21.7739,95.765 13.3476-23.5741 15.1322-52.9268 11.573-67.3485s-15.5831-29.2485-28.0123-42.6374c-13.0569-14.0652-17.6795-22.7791-17.6795-22.7791z" fill="#f0f"/>
<path d="m112.6705,20.3904v4.3646c0,0 4.5993,8.7124 17.6563,22.7776 12.4291,13.3889 24.4721,28.2009 28.0313,42.6227 .8797,3.5646 1.4296,8.0516 1.5625,13.1278 .1366-6.874-.4393-12.9413-1.5625-17.4924-3.5592-14.4218-15.6021-29.2338-28.0313-42.6227-13.0569-14.0652-17.6562-22.7776-17.6562-22.7776zm43.7187,100.5896c-.2129,6.2836-1.3468,12.7927-3.7188,19.5041 1.3074-3.4232 2.4463-6.8795 3.375-10.3317 .3448-3.1248.4458-6.1702.3438-9.1724zm-4.1875,20.7658c-1.5447,3.8866-3.3519,7.7053-5.4375,11.3888 2.2291-3.8419 4.0295-7.633 5.4375-11.3888zm-58.2813,32.9047c-5.3533.0418-10.9948.7933-16.7188,2.3528-22.8557,6.227-38.6736,22.9248-37.125,38.4286 1.468-14.1605 16.4118-28.4208 37.125-34.0641 13.0833-3.5645 25.767-2.9399 35.4688.8865v-4.3646c-5.4572-2.1524-11.8672-3.2931-18.75-3.2393z" fill="#fff" opacity=".7"/>
<path d="m125.0153,53.0111v4.3646c9.7039,6.9707 30.3349,29.8912 31.375,59.1262 1.0104-31.3018-21.1936-56.1771-31.375-63.4908zm34.9063,46.0666c-.1745,8.1003-1.3654,17.3249-3.875,26.6648-.5248,4.803-1.5971,9.7338-3.375,14.7645 5.5023-14.4001 7.5378-29.5455 7.25-41.4293zm-8.9063,45.5892c-.9211,2.1166-1.9464,4.1859-3.0313,6.24 1.129-2.0948 2.1492-4.1706 3.0313-6.24zm-26.1563,52.9885c-1.3779,14.2074-11.4138,28.5748-32.1875,34.2345-24.4513,6.6617-47.7234-1.2475-52.0312-17.5947-.2838-1.0768-.455-2.1467-.5625-3.2393-.2649,2.5555-.0961,5.1048.5625,7.6039 4.3079,16.3471 27.58,24.2563 52.0312,17.5946 20.7737-5.6597 30.8097-20.0271 32.1875-34.2345h.1563v-4.3646h-.1563z" fill="#000" opacity=".7"/>
<path d="m211.2128,35.7751-27.6106,107.8934c-5.883-4.6747-14.3398-7.7752-23.8028-8.1025-17.6853-.6118-32.0456,8.6858-32.0013,20.796s14.3958,22.4488 32.0811,23.0605c15.0253.5198 24.3004-7.1876 27.7218-16.6286l.1062.0333 25.3584-99.0927c7.4202,9.5013 23.7366,44.6238-2.0794,70.2115 13.1493-13.3241 19.5005-33.0542 19.6244-43.6869s-5.3994-23.3347-11.4484-35.1374c-6.3546-12.3988-7.9496-19.3466-7.9496-19.3466z" fill="none" opacity=".05" stroke="#000" stroke-linejoin="round" stroke-width="13.2935"/>
<path d="m211.2128,35.7751-27.6106,107.8934c-5.883-4.6747-14.3398-7.7752-23.8028-8.1025-17.6853-.6118-32.0456,8.6858-32.0013,20.796s14.3958,22.4488 32.0811,23.0605c15.0253.5198 24.3004-7.1876 27.7218-16.6286l.1062.0333 25.3584-99.0927c7.4202,9.5013 23.7366,44.6238-2.0794,70.2115 13.1493-13.3241 19.5005-33.0542 19.6244-43.6869s-5.3994-23.3347-11.4484-35.1374c-6.3546-12.3988-7.9496-19.3466-7.9496-19.3466z" fill="none" opacity=".1" stroke="#000" stroke-linejoin="round" stroke-width="8.8623"/>
<path d="m211.2128,35.7751-27.6106,107.8934c-5.883-4.6747-14.3398-7.7752-23.8028-8.1025-17.6853-.6118-32.0456,8.6858-32.0013,20.796s14.3958,22.4488 32.0811,23.0605c15.0253.5198 24.3004-7.1876 27.7218-16.6286l.1062.0333 25.3584-99.0927c7.4202,9.5013 23.7366,44.6238-2.0794,70.2115 13.1493-13.3241 19.5005-33.0542 19.6244-43.6869s-5.3994-23.3347-11.4484-35.1374c-6.3546-12.3988-7.9496-19.3466-7.9496-19.3466z" fill="none" opacity=".15" stroke="#000" stroke-linejoin="round" stroke-width="4.4312"/>
<path d="m211.2128,35.7751-27.6106,107.8934c-5.883-4.6747-14.3398-7.7752-23.8028-8.1025-17.6853-.6118-32.0456,8.6858-32.0013,20.796s14.3958,22.4488 32.0811,23.0605c15.0253.5198 24.3004-7.1876 27.7218-16.6286l.1062.0333 25.3584-99.0927c7.4202,9.5013 23.7366,44.6238-2.0794,70.2115 13.1493-13.3241 19.5005-33.0542 19.6244-43.6869s-5.3994-23.3347-11.4484-35.1374c-6.3546-12.3988-7.9496-19.3466-7.9496-19.3466z" fill="#0197fd"/>
<path d="m211.2211,35.7828-.7651,2.9899c0,0 1.5796,6.9418 7.9342,19.3406 6.049,11.8027 11.5877,24.4985 11.4638,35.1313-.0306,2.6281-.4458,5.8183-1.2459,9.3238 1.2973-4.6801 1.9719-8.9583 2.011-12.3137 .1239-10.6328-5.4148-23.3286-11.4638-35.1313-6.3546-12.3988-7.9342-19.3406-7.9342-19.3406zm11.8992,78.1613c-1.2454,4.2595-3.1525,8.4785-5.9313,12.574 1.4833-2.0683 2.8585-4.195 4.0911-6.3633 .7807-2.0676 1.3828-4.1325 1.8402-6.2107zm-6.4691,13.3391c-1.7248,2.3355-3.6151,4.569-5.6697,6.6509 2.1793-2.1601 4.0602-4.3761 5.6697-6.6509zm-45.1388,10.2054c-3.6236-1.1044-7.5663-1.7837-11.7064-1.9269-16.5312-.5718-30.1439,7.5188-31.8156,18.4674 3.4741-9.3898 16.0689-15.9957 31.0505-15.4775 9.4629.3273 17.9216,3.4398 23.8046,8.1145l.7651-2.9899c-3.3092-2.6295-7.4393-4.7677-12.0982-6.1876z" fill="#fff" opacity=".7"/>
<path d="m213.8418,60.7423-.7651,2.9899c5.3333,6.8291 15.2519,26.8973 10.8294,47.1446 6.1699-21.2292-4.4686-42.9694-10.0643-50.1345zm15.5043,38.9456c-1.5379,5.5121-3.9595,11.5792-7.2922,17.4463-1.1965,3.1792-2.7852,6.33-4.8682,9.3999 6.2413-8.7 10.2714-18.6444 12.1603-26.8462zm-14.0085,29.3454c-.9933,1.255-2.0486,2.4555-3.1416,3.633 1.1299-1.1961 2.183-2.4021 3.1416-3.633zm-26.9584,30.7631c-3.4214,9.441-12.7197,17.1591-27.745,16.6393-17.6853-.6118-32.0196-10.9556-32.064-23.0658-.003-.7977.069-1.5668.1879-2.3381-.627,1.6946-.9598,3.4766-.953,5.328 .0443,12.1102 14.3787,22.4541 32.064,23.0658 15.0253.5198 24.3236-7.1983 27.745-16.6393l.1056.0331 .7651-2.9899-.1056-.0331z" fill="#000" opacity=".7"/>
<path d="m74.8861,37.5205-18.4992,77.879c-3.9416-3.3743-9.6077-5.6122-15.9479-5.8485-11.8492-.4416-21.4707,6.2695-21.441,15.0108s9.6452,16.2038 21.4944,16.6454c10.067.3752 16.2813-5.1881 18.5737-12.0028l.0712.024 16.9902-71.5265c4.9715,6.8582 15.9036,32.2101-1.3932,50.6797 8.8101-9.6175 13.0654-23.859 13.1484-31.5339s-3.6176-16.8433-7.6704-25.3627c-4.2576-8.9496-5.3263-13.9646-5.3263-13.9646z" fill="none" opacity=".05" stroke="#000" stroke-linejoin="round" stroke-width="9.2447"/>
<path d="m74.8861,37.5205-18.4992,77.879c-3.9416-3.3743-9.6077-5.6122-15.9479-5.8485-11.8492-.4416-21.4707,6.2695-21.441,15.0108s9.6452,16.2038 21.4944,16.6454c10.067.3752 16.2813-5.1881 18.5737-12.0028l.0712.024 16.9902-71.5265c4.9715,6.8582 15.9036,32.2101-1.3932,50.6797 8.8101-9.6175 13.0654-23.859 13.1484-31.5339s-3.6176-16.8433-7.6704-25.3627c-4.2576-8.9496-5.3263-13.9646-5.3263-13.9646z" fill="none" opacity=".1" stroke="#000" stroke-linejoin="round" stroke-width="6.1631"/>
<path d="m74.8861,37.5205-18.4992,77.879c-3.9416-3.3743-9.6077-5.6122-15.9479-5.8485-11.8492-.4416-21.4707,6.2695-21.441,15.0108s9.6452,16.2038 21.4944,16.6454c10.067.3752 16.2813-5.1881 18.5737-12.0028l.0712.024 16.9902-71.5265c4.9715,6.8582 15.9036,32.2101-1.3932,50.6797 8.8101-9.6175 13.0654-23.859 13.1484-31.5339s-3.6176-16.8433-7.6704-25.3627c-4.2576-8.9496-5.3263-13.9646-5.3263-13.9646z" fill="none" opacity=".15" stroke="#000" stroke-linejoin="round" stroke-width="3.0816"/>
<path d="m74.8861,37.5205-18.4992,77.879c-3.9416-3.3743-9.6077-5.6122-15.9479-5.8485-11.8492-.4416-21.4707,6.2695-21.441,15.0108s9.6452,16.2038 21.4944,16.6454c10.067.3752 16.2813-5.1881 18.5737-12.0028l.0712.024 16.9902-71.5265c4.9715,6.8582 15.9036,32.2101-1.3932,50.6797 8.8101-9.6175 13.0654-23.859 13.1484-31.5339s-3.6176-16.8433-7.6704-25.3627c-4.2576-8.9496-5.3263-13.9646-5.3263-13.9646z" fill="#f0a513"/>
<path d="m74.8917,37.5261-.5126,2.1582c0,0 1.0584,5.0107 5.3159,13.9603 4.0529,8.5193 7.7638,17.6833 7.6808,25.3582-.0205,1.897-.2987,4.1997-.8347,6.73 .8692-3.3781 1.3212-6.4662 1.3474-8.8882 .083-7.6749-3.6279-16.8389-7.6808-25.3582-4.2576-8.9496-5.3159-13.9603-5.3159-13.9603zm7.9725,56.4179c-.8344,3.0745-2.1121,6.1199-3.974,9.0761 .9938-1.4929 1.9152-3.028 2.7411-4.5931 .5231-1.4924.9265-2.9829 1.2329-4.483zm-4.3343,9.6283c-1.1556,1.6858-2.4221,3.298-3.7987,4.8007 1.4602-1.5592 2.7203-3.1587 3.7987-4.8007zm-30.2431,7.3664c-2.4278-.7972-5.0695-1.2875-7.8433-1.3909-11.076-.4128-20.1965,5.4272-21.3165,13.33 2.3276-6.7777 10.7662-11.5459 20.8039-11.1719 6.3402.2363 12.0075,2.4829 15.9491,5.8572l.5126-2.1582c-2.2172-1.898-4.9843-3.4414-8.1058-4.4663z" fill="#fff" opacity=".7"/>
<path d="m76.6476,55.5422-.5126,2.1582c3.5733,4.9293 10.2188,19.4148 7.2557,34.0296 4.1339-15.3235-2.994-31.0159-6.7431-36.1878zm10.3879,28.1115c-1.0304,3.9787-2.6529,8.3581-4.8858,12.593-.8016,2.2948-1.8661,4.5691-3.2617,6.785 4.1817-6.2798 6.8819-13.4578 8.1475-19.378zm-9.3857,21.1819c-.6655.9059-1.3726,1.7725-2.1049,2.6224 .757-.8633 1.4626-1.7339 2.1049-2.6224zm-18.0622,22.2052c-2.2924,6.8147-8.5222,12.3857-18.5892,12.0105-11.8492-.4416-21.4532-7.9079-21.4829-16.6492-.002-.5758.0462-1.131.1259-1.6877-.4201,1.2232-.6431,2.5095-.6385,3.8459 .0297,8.7413 9.6338,16.2077 21.4829,16.6492 10.067.3752 16.2968-5.1958 18.5892-12.0105l.0707.0239 .5126-2.1582-.0707-.0239z" fill="#000" opacity=".7"/>
</g>
</g>
</g>
</svg>
